<svg xmlns="http://www.w3.org/2000/svg" viewBox="0 0 62 59"><path fill="#FFF" d="M35.30403577 37.1986258c-1.0633039 0-2.0474464.1318927-2.92604035.39372414-.87566205.26085444-1.60668348.56274217-2.17156368.89687034l-.06157.03712535.39873897 1.2319755.09577558-.05275708c.59419924-.3272893 1.2753783-.59791356 2.02203657-.802103.74861286-.20516642 1.63795712-.3087266 2.64262295-.3087266 1.2802648 0 2.27320302.2970028 2.9494956.8822156.67238332.58228182 1.01346152 1.61886073 1.01346152 3.08042725v.970144h-3.589628c-2.192087 0-3.8779319.4152178-5.0106242 1.2329525-1.14246532.8245736-1.72102774 2.0760888-1.72102774 3.7193741 0 .7161285.12313997 1.3580063.36648802 1.9060937.24237074.5490644.58638083 1.0209472 1.02030264 1.4029475.43294453.3800464.95189157.6692333 1.5441362.859745.58735814.1895347 1.22651325.285279 1.8979193.285279 1.29883354 0 2.43738966-.287233 3.3824401-.8548601.87175284-.5226858 1.59202396-1.2524921 2.1432219-2.1689021l.3508512 2.7746316h1.1981715V42.5564003c0-1.63644645-.4651954-2.95244248-1.3809268-3.91183973-.91670872-.95939725-2.3181589-1.44593476-4.16428123-1.44593476zm3.96393443 7.7230502v1.5934592c0 .6086603-.12314 1.2163437-.36746532 1.8044875-.24432535.5900977-.60006306 1.1313462-1.0574401 1.6090909-.45737705.4777446-1.03007567.8695148-1.70148172 1.1645636-.67042875.2950489-1.45520177.4445273-2.3337957.4445273-.44662675 0-.87859396-.0615499-1.28417404-.1826958-.40264817-.1201689-.75838587-.3087266-1.0593947-.5598113-.30003153-.2501076-.53849306-.569581-.7085435-.9496274-.17005045-.3810233-.25703027-.8402053-.25703027-1.3658221 0-1.2309985.40167087-2.1395927 1.193285-2.7003809.80236443-.5686041 2.14322194-.856814 3.98641235-.856814h3.589628v-.000977zm15.4980454-4.69538004c-.1866646-.30286472-.4114439-.6067064-.6704288-.90761716-.3264186-.37906938-.7202711-.72980626-1.170807-1.04341778-.4515133-.3145885-.9665511-.57544296-1.5333859-.77474748-.5687894-.2002815-1.2079445-.30091074-1.9008512-.30091074-.8610025 0-1.6819357.17585693-2.438367.52268587-.7564312.34682895-1.4327238.86365292-2.0103089 1.5348402-.5766078.6711873-1.0388714 1.49869184-1.3731085 2.46004303-.334237.9613512-.5042875 2.0721809-.5042875 3.3022024 0 1.3970856.1641867 2.6065905.4876734 3.5972512.3244641.9945686.7818411 1.8240271 1.3594262 2.463951.5785625.6418778 1.2724465 1.1166915 2.062106 1.4107633.7867276.2930949 1.6516393.4415963 2.5722572.4415963 1.1971942 0 2.2477932-.2989568 3.1215007-.8880775.7828184-.5285477 1.4424968-1.2261136 1.9643757-2.0790197v1.9109787c0 1.0229011-.1192307 1.9051167-.3537831 2.6212452-.233575.7102666-.5629256 1.2915715-.9773013 1.7273059-.4133985.4337804-.920618.7503229-1.5060215.9427885-.5922446.1934426-1.264628.2921179-1.9985813.2921179-.9636192 0-1.8637138-.114307-2.6729193-.3390131-.8131148-.22666-1.5148172-.4972843-2.0865385-.80308l-.0947982-.0508031-.4300126 1.3267429.0664565.0351713c.5834489.3126346 1.3281526.6086604 2.2145649.8792847.8893443.2716012 1.8783733.4093558 2.9416772.4093558 2.0308323 0 3.641425-.5852127 4.7877995-1.7409836 1.1444199-1.1557708 1.7249369-2.9280178 1.7249369-5.268869V37.44873345h-1.2294451l-.3518285 2.7775625zm-.0332283 1.85626764v3.9030468c0 .6731413-.1084804 1.3462825-.3225094 1.9979301-.214029.6506707-.5336066 1.2446763-.9509143 1.7644312-.4163304.517801-.9421185.9398576-1.5607503 1.2544461-.6176545.3136116-1.3437894.4728598-2.1578814.4728598-.6313367 0-1.2558323-.11333-1.8549181-.3370591-.5971311-.2217752-1.1297604-.5920517-1.5861601-1.0981289-.4573771-.5080311-.8287516-1.1792184-1.1043506-1.9949991-.275599-.8177348-.4163304-1.835751-.4163304-3.0257162 0-1.087382.1348676-2.0418944.4006936-2.8391125.2648487-.7952641.6264502-1.46156644 1.0740542-1.98034438.4456494-.515847.9645965-.90664018 1.5421816-1.16065574.5785624-.25303858 1.2020807-.38200033 1.8500315-.38200033 1.0564628 0 2.0239912.31361152 2.8781526.9339957.8541614.6184302 1.5969105 1.45765855 2.2087011 2.49130655zm5.3937264-10.58756422h1.6135246v21.1888061h-1.6135246zM5.68007566 11.971949c1.09262295-.8763537 2.70419294-.6995198 3.58083228.3927471L23.0183796 29.5068389c.8766393 1.0922669.6997478 2.7033118-.3928752 3.5796655-1.0926229.8763537-2.7041929.6995198-3.5808323-.3927472L5.2872005 15.5516145c-.87663934-1.0922669-.6997478-2.7033118.39287516-3.5796655zM.03518286 40.5281835c.23064312-1.3814539 1.55-2.3232655 2.93190415-2.0926975l15.9231715 2.6554396c1.3819042.230568 2.3240227 1.549495 2.0933796 2.9309489-.2306431 1.3814539-1.55 2.3232654-2.9319042 2.0926974L2.12758515 43.4591323c-1.38190416-.230568-2.3230454-1.5494949-2.09240227-2.9309488zM25.9405107.3145885c1.3916772-.16120218 2.662169.84411327 2.824401 2.23533698l2.5360971 21.83068392c.1612548 1.3912237-.8443884 2.6613015-2.2360655 2.8234807-1.3916772.1612022-2.662169-.8441133-2.8244011-2.235337L23.7044451 3.13806922c-.1612547-1.39122372.8443884-2.66130154 2.2360656-2.8234807zm18.4729508 5.81597947c1.316425.47969863 1.9995587 1.94908098 1.5197037 3.265077L39.9090794 25.8968869c-.4798549 1.315996-1.9497162 1.9989071-3.2661412 1.5192085-1.316425-.4796986-1.9995586-1.949081-1.5197036-3.265077l6.0240857-16.50124195c.4808323-1.31599602 1.9497163-1.9989071 3.2661412-1.51920848zM54.4659836 19.4634542c1.0378941.9408346 1.1170555 2.5587183.1768916 3.5962742l-6.9574086 7.6732241c-.9411413 1.0375559-2.5595524 1.1166915-3.5974464.1768339-1.0378941-.9408346-1.1170555-2.5587183-.1768916-3.5962742l6.9574086-7.6732241c.9401639-1.0375559 2.5595523-1.1166915 3.5974464-.1768339z"/></svg>