<svg xmlns="http://www.w3.org/2000/svg" viewBox="0 0 208 197"><defs><linearGradient id="a" x1="94.9086309%" x2="4.99148943%" y1="97.4610359%" y2="2.47512166%"><stop stop-color="#4CE9F2" offset="0%"/><stop stop-color="#00DFED" offset="60%"/><stop stop-color="#00D6EA" offset="64.13%"/><stop stop-color="#00BEE3" offset="70.88%"/><stop stop-color="#0096D6" offset="79.41%"/><stop stop-color="#005FC5" offset="89.37%"/><stop stop-color="#001CB0" offset="100%"/></linearGradient><linearGradient id="b" x1="99.8932828%" x2=".22425803%" y1="72.1567389%" y2="27.0579136%"><stop stop-color="#4CE9F2" offset="0%"/><stop stop-color="#00DFED" offset="60%"/><stop stop-color="#00D6EA" offset="64.13%"/><stop stop-color="#00BEE3" offset="70.88%"/><stop stop-color="#0096D6" offset="79.41%"/><stop stop-color="#005FC5" offset="89.37%"/><stop stop-color="#001CB0" offset="100%"/></linearGradient><linearGradient id="c" x1="70.3603153%" x2="29.4079587%" y1="99.9994001%" y2=".12927096%"><stop stop-color="#4CE9F2" offset="0%"/><stop stop-color="#00DFED" offset="60%"/><stop stop-color="#00D6EA" offset="64.13%"/><stop stop-color="#00BEE3" offset="70.88%"/><stop stop-color="#0096D6" offset="79.41%"/><stop stop-color="#005FC5" offset="89.37%"/><stop stop-color="#001CB0" offset="100%"/></linearGradient><linearGradient id="d" x1="14.9734435%" x2="84.8648879%" y1="99.324586%" y2=".74751897%"><stop stop-color="#4CE9F2" offset="0%"/><stop stop-color="#00DFED" offset="60%"/><stop stop-color="#00D6EA" offset="64.13%"/><stop stop-color="#00BEE3" offset="70.88%"/><stop stop-color="#0096D6" offset="79.41%"/><stop stop-color="#005FC5" offset="89.37%"/><stop stop-color="#001CB0" offset="100%"/></linearGradient><linearGradient id="e" x1="6.86115163%" x2="93.0304435%" y1="94.9108996%" y2="5.20027032%"><stop stop-color="#4CE9F2" offset="0%"/><stop stop-color="#00DFED" offset="60%"/><stop stop-color="#00D6EA" offset="64.13%"/><stop stop-color="#00BEE3" offset="70.88%"/><stop stop-color="#0096D6" offset="79.41%"/><stop stop-color="#005FC5" offset="89.37%"/><stop stop-color="#001CB0" offset="100%"/></linearGradient></defs><g fill="none"><path fill="#000" d="M118.4393443 123.8360656c-3.5672132 0-6.8688525.4426229-9.8163935 1.3213114-2.9377049.8754099-5.3901639 1.8885246-7.28524588 3.0098361l-.20655738.1245902 1.33770492 4.1344262.32131147-.1770492c1.99344263-1.0983606 4.27868857-2.0065573 6.78360657-2.6918033 2.5114754-.6885245 5.495082-1.0360655 8.8655738-1.0360655 4.2950819 0 7.6262295.9967213 9.8950819 2.9606557 2.2557377 1.9540984 3.4 5.4327869 3.4 10.3377049v3.2557377h-12.0426229c-7.3540984 0-13.0098361 1.3934427-16.8098361 4.137705-3.83278687 2.7672131-5.77377048 6.9672131-5.77377048 12.4819672 0 2.4032787.41311476 4.557377 1.2295082 6.3967213.81311475 1.8426229 1.9672131 3.4262295 3.42295082 4.7081967 1.452459 1.2754098 3.19344262 2.2459016 5.18032787 2.8852459 1.9704918.6360656 4.1147541.9573771 6.3672131.9573771 4.3573771 0 8.1770492-.9639345 11.347541-2.8688525 2.9245902-1.7540984 5.3409836-4.2032787 7.1901639-7.2786885l1.1770492 9.3114754h4.0196722v-33.990164c0-5.4918032-1.5606558-9.9081967-4.6327869-13.1278688-3.0754099-3.2196721-7.7770492-4.852459-13.9704918-4.852459zm13.2983606 25.9180328v5.3475409c0 2.042623-.4131147 4.0819673-1.2327869 6.0557377-.8196721 1.9803279-2.0131147 3.7967214-3.547541 5.4-1.5344262 1.6032787-3.4557377 2.9180328-5.7081967 3.9081968-2.2491803.9901639-4.8819672 1.4918032-7.8295082 1.4918032-1.4983606 0-2.947541-.2065573-4.3081967-.6131147-1.3508197-.4032787-2.5442623-1.0360656-3.55409835-1.8786885-1.00655738-.8393443-1.80655738-1.9114754-2.37704918-3.1868853-.5704918-1.2786885-.86229508-2.8196721-.86229508-4.5836065 0-4.1311476 1.34754095-7.1803279 4.00327866-9.0622951 2.69180332-1.9081967 7.19016392-2.8754099 13.37377052-2.8754099h12.0426229v-.0032786zm51.9934426-15.7573771c-.6262295-1.0163934-1.3803278-2.0360656-2.2491803-3.0459016-1.095082-1.2721312-2.4163934-2.4491804-3.9278688-3.5016394-1.5147541-1.0557377-3.242623-1.9311475-5.1442623-2.6-1.9081968-.6721311-4.0524591-1.009836-6.3770492-1.009836-2.8885246 0-5.642623.5901639-8.1803279 1.7540983-2.5377049 1.1639344-4.8065574 2.8983607-6.7442623 5.1508197-1.9344262 2.252459-3.4852459 5.0295082-4.6065574 8.2557377-1.1213114 3.2262295-1.6918032 6.9540984-1.6918032 11.0819672 0 4.6885246.5508196 8.747541 1.6360655 12.0721312 1.0885246 3.3377049 2.6229509 6.1213114 4.5606558 8.2688524 1.9409836 2.1540984 4.2688524 3.747541 6.9180328 4.7344262 2.6393442.9836066 5.5409836 1.4819673 8.6295082 1.4819673 4.0163934 0 7.5409836-1.0032787 10.4721311-2.9803279 2.6262295-1.7737705 4.8393443-4.1147541 6.5901639-6.9770492v6.4131148c0 3.4327869-.4 6.3934426-1.1868852 8.7967213-.7836066 2.3836065-1.8885246 4.3344262-3.2786885 5.7967213-1.3868853 1.4557377-3.0885246 2.5180328-5.052459 3.1639344-1.9868853.6491803-4.242623.9803279-6.7049181.9803279-3.2327869 0-6.252459-.3836066-8.9672131-1.1377049-2.7278688-.7606558-5.0819672-1.6688525-7-2.695082l-.3180328-.1704918-1.4426229 4.452459.2229508.1180328c1.957377 1.0491803 4.4557377 2.042623 7.4295082 2.9508197 2.9836065.9114754 6.3016393 1.3737705 9.8688524 1.3737705 6.8131148 0 12.2163935-1.9639345 16.0622951-5.842623 3.8393443-3.8786885 5.7868853-9.8262295 5.7868853-17.6819672v-48.5245902h-4.1245902l-1.1803279 9.3213115zm-.1114754 6.2295082v13.0983607c0 2.2590164-.3639344 4.5180328-1.0819672 6.704918-.7180328 2.1836066-1.7901639 4.1770492-3.1901639 5.9213115-1.3967213 1.7377049-3.1606558 3.1540983-5.2360656 4.209836-2.0721311 1.0524591-4.5081967 1.5868853-7.2393443 1.5868853-2.1180327 0-4.2131147-.3803279-6.2229508-1.1311476-2.0032787-.7442623-3.7901639-1.9868852-5.3213114-3.6852459-1.5344263-1.704918-2.7803279-3.957377-3.7049181-6.6950819-.9245901-2.7442623-1.3967213-6.1606558-1.3967213-10.1540984 0-3.6491803.452459-6.852459 1.3442623-9.5278688.8885246-2.6688525 2.1016393-4.9049181 3.6032787-6.6459017 1.495082-1.7311475 3.2360656-3.0426229 5.1737705-3.8950819 1.9409836-.8491804 4.0327869-1.2819673 6.2065574-1.2819673 3.5442623 0 6.7901639 1.0524591 9.6557377 3.1344263 2.8655737 2.0754098 5.357377 4.8918032 7.409836 8.3606557zm18.0950819-35.53114753h5.41311475v71.1081967H201.714754z"/><path fill="url(#a)" d="M19.0557377 40.1770492c3.6655738-2.9409836 9.0721312-2.347541 12.0131148 1.3180328l46.1540983 57.5278688c2.9409836 3.6655742 2.347541 9.0721312-1.3180328 12.0131152-3.6655737 2.940983-9.0721311 2.347541-12.0131147-1.318033L17.7377049 52.1901639c-2.9409836-3.6655737-2.347541-9.0721311 1.3180328-12.0131147z" transform="translate(0 -1)"/><path fill="url(#b)" d="M.1180328 136.009836c.77377048-4.636066 5.2-7.796721 9.83606556-7.022951l53.41967214 8.911476c4.6360656.77377 7.7967213 5.2 7.0229508 9.836065-.7737705 4.636066-5.2 7.796722-9.8360656 7.022951l-53.42295078-8.911475c-4.63606558-.773771-7.79344262-5.2-7.01967213-9.836066z" transform="translate(0 -1)"/><path fill="url(#c)" d="M87.0262295 1.0557377c4.6688525-.5409836 8.9311475 2.8327869 9.4754098 7.50163935l8.5081967 73.26229505c.540984 4.6688525-2.832787 8.9311476-7.5016393 9.4754099-4.6688524.5409836-8.9311475-2.8327869-9.4754098-7.5016394l-8.5081967-73.2622951C78.9836066 5.86229508 82.357377 1.6 87.0262295 1.0557377z" transform="translate(0 -1)"/><path fill="url(#d)" d="M149 20.5737705c4.416393 1.6098361 6.708197 6.5409836 5.098361 10.957377l-20.209836 55.3770492c-1.609836 4.4163935-6.540984 6.7081967-10.957377 5.0983607-4.416394-1.6098361-6.708197-6.5409836-5.098361-10.9573771l20.209836-55.3770492c1.613115-4.4163934 6.540984-6.7081967 10.957377-5.0983606z" transform="translate(0 -1)"/><path fill="url(#e)" d="M182.72459 65.3180328c3.481967 3.157377 3.747541 8.5868852.593443 12.0688524l-23.340984 25.7508198c-3.157377 3.481967-8.586885 3.747541-12.068852.593443-3.481967-3.157378-3.747541-8.5868857-.593443-12.0688529l23.340984-25.7508197c3.154098-3.4819672 8.586885-3.747541 12.068852-.5934426z" transform="translate(0 -1)"/></g></svg>